#!OML:ASF F:\VICON\USERDATA\INSTALL\rory3\rory3.ASF
:FULLY-SPECIFIED
:DEGREES
1595
root 0.276508 17.7985 -2.45982 -177.977 -120.19 181.742
lowerback 5.16616 1.05894 -3.37594
upperback -1.70836 1.30653 3.13008
thorax -4.83107 0.796861 5.04608
lowerneck -12.9914 -0.941082 -11.2192
upperneck -23.051 0.384694 10.3108
head -4.8801 0.263411 5.27527
rclavicle 5.86912e-014 -3.26007e-014
rhumerus 64.2531 -3.56868 -48.276
rradius 60.4668
rwrist -3.6639
rhand -44.1053 4.22943
rfingers 7.12502
rthumb -16.9225 -25.0533
lclavicle 5.86912e-014 -3.26007e-014
lhumerus 66.6436 -0.710714 51.8471
lradius 56.2914
lwrist 12.7291
lhand -28.4137 27.5601
lfingers 7.12502
lthumb -1.78542 57.5324
rfemur -6.43364 6.58947 10.9084
rtibia 40.6421
rfoot -9.7662 0.2663
rtoes -5.5234
lfemur -15.6295 2.08684 -19.4479
ltibia 40.7762
lfoot -11.3728 0.879428
ltoes -20.6676
1596
root 0.229437 18.0284 -2.35422 -178.283 -119.798 181.975
lowerback 4.96229 1.13853 -3.1173
upperback -1.8843 1.4353 3.12801
thorax -4.90666 0.857405 4.88594
lowerneck -13.6976 -1.06585 -11.2625
upperneck -22.1284 0.246523 10.1454
head -4.47232 0.227126 5.19845
rclavicle 1.63252e-014 3.18055e-015
rhumerus 66.1047 -4.24625 -48.1058
rradius 59.1307
rwrist -5.33572
rhand -43.6415 3.16132
rfingers 7.12502
rthumb -16.4761 -26.1591
lclavicle 1.63252e-014 3.18055e-015
lhumerus 68.0058 0.23978 52.3086
lradius 55.4264
lwrist 14.6271
lhand -26.2211 28.2512
lfingers 7.12502
lthumb 0.332156 58.2307
rfemur -5.99884 6.63162 10.554
rtibia 39.2201
rfoot -5.90948 -1.93901
rtoes -3.15456
lfemur -14.3617 2.06868 -19.6871
ltibia 38.5912
lfoot -7.8075 0.374138
ltoes -23.6053
1597
root 0.179724 18.2685 -2.25239 -178.173 -119.353 181.845
lowerback 4.70611 1.19138 -2.71874
upperback -2.12562 1.53956 3.18173
thorax -5.0147 0.902835 4.70849
lowerneck -14.2452 -1.21239 -11.6179
upperneck -21.2557 0.146621 10.306
head -4.10534 0.216169 5.28653
rclavicle 6.8618e-014 -1.66979e-014
rhumerus 67.8947 -4.76392 -48.0268
rradius 57.8289
rwrist -6.87446
rhand -43.5972 2.64301
rfingers 7.12502
rthumb -16.4334 -26.6809
lclavicle 6.8618e-014 -1.66979e-014
lhumerus 69.2277 1.20369 52.8441
lradius 54.3317
lwrist 16.3748
lhand -24.3625 28.5143
lfingers 7.12502
lthumb 2.12725 58.4834
rfemur -5.84314 6.72298 10.4447
rtibia 37.9791
rfoot -2.21702 -4.55626
rtoes 0.238331
lfemur -13.2717 2.04718 -19.6243
ltibia 36.3829
lfoot -3.87854 -0.286802
ltoes -25.041
1598
root 0.128782 18.5075 -2.15221 -178.305 -118.972 181.949
lowerback 4.56014 1.26742 -2.46263
upperback -2.32084 1.65795 3.0992
thorax -5.13721 0.956634 4.46633
lowerneck -15.0394 -1.39787 -11.5522
upperneck -20.4112 -0.0446902 10.357
head -3.70426 0.136246 5.26537
rclavicle 4.90128e-014 1.74931e-014
rhumerus 69.5082 -5.40636 -48.1723
rradius 56.5796
rwrist -7.92538
rhand -43.4981 2.43607
rfingers 7.12502
rthumb -16.338 -26.8957
lclavicle 4.90128e-014 1.74931e-014
lhumerus 70.8311 2.1008 53.3987
lradius 52.7323
lwrist 17.5231
lhand -22.5068 27.8442
lfingers 7.12502
lthumb 3.91938 57.7879
rfemur -5.73127 6.73118 10.2509
rtibia 36.9745
rfoot 0.928764 -6.71861
rtoes 3.63773
lfemur -12.2259 2.05253 -19.6436
ltibia 34.1795
lfoot 0.460396 -0.854216
ltoes -28.3781
1599
root 0.0794074 18.7393 -2.05521 -178.418 -118.632 182.117
lowerback 4.41829 1.22162 -2.40975
upperback -2.65907 1.6092 3.24203
thorax -5.41024 0.94245 4.5934
lowerneck -15.1828 -1.45969 -12.1225
upperneck -19.9065 -0.0187885 10.6559
head -3.52547 0.185932 5.44894
rclavicle -7.24011e-014 -4.29375e-014
rhumerus 71.2405 -5.55525 -48.0824
rradius 55.2828
rwrist -8.68097
rhand -43.3326 2.56319
rfingers 7.12502
rthumb -16.1786 -26.7816
lclavicle -7.24011e-014 -4.29375e-014
lhumerus 71.6472 3.27239 53.7398
lradius 51.5154
lwrist 18.6323
lhand -20.855 27.4552
lfingers 7.12502
lthumb 5.51434 57.3634
rfemur -5.77676 6.63598 10.0521
rtibia 36.2814
rfoot 2.86329 -8.26562
rtoes 6.86918
lfemur -11.4065 1.91276 -19.6331
ltibia 32.0448
lfoot 5.24112 -1.10361
ltoes -29.6997
1600
root 0.0331509 18.9613 -1.9654 -178.435 -118.36 182.183
lowerback 4.30072 1.25822 -2.30202
upperback -2.87558 1.66914 3.28287
thorax -5.57492 0.974488 4.57129
lowerneck -15.8581 -1.64535 -12.4212
upperneck -19.2045 -0.152973 10.8707
head -3.19302 0.151456 5.5495
rclavicle -9.01985e-015 1.19271e-014
rhumerus 72.8968 -6.14859 -47.9642
rradius 53.9602
rwrist -8.93923
rhand -42.8611 2.38394
rfingers 7.12502
rthumb -15.7246 -26.9972
lclavicle -9.01985e-015 1.19271e-014
lhumerus 72.6407 4.28482 53.5535
lradius 50.9792
lwrist 20.0782
lhand -19.9267 28.8427
lfingers 7.12502
lthumb 6.41056 58.7257
rfemur -5.86178 6.27003 9.94443
rtibia 35.9146
rfoot 2.59304 -9.78388
rtoes 9.76429
lfemur -10.7444 1.5967 -19.5049
ltibia 30.0253
lfoot 10.4466 -0.802302
ltoes -28.2135
1601
root -0.011557 19.1728 -1.8847 -178.391 -118.084 182.293
lowerback 4.07261 1.36297 -2.24633
upperback -3.07264 1.81551 3.2785
thorax -5.66445 1.04874 4.52453
lowerneck -16.4494 -1.85645 -12.3627
upperneck -18.6382 -0.423838 10.5844
head -2.91305 0.0353816 5.42399
rclavicle -6.4928e-014 7.95139e-015
rhumerus 74.4007 -6.9627 -47.6611
rradius 52.6624
rwrist -8.7983
rhand -42.0223 1.43897
rfingers 7.12502
rthumb -14.9166 -28.0039
lclavicle -6.4928e-014 7.95139e-015
lhumerus 74.1517 5.12253 53.6269
lradius 49.4454
lwrist 21.1003
lhand -19.4879 28.0019
lfingers 7.12502
lthumb 6.83414 57.8716
rfemur -6.04407 6.07856 9.8807
rtibia 35.8271
rfoot 0.147649 -11.6856
rtoes 11.8676
lfemur -10.3501 1.30104 -19.3816
ltibia 28.2261
lfoot 15.3344 -0.217906
ltoes -26.2393
1602
root -0.0579253 19.3831 -1.80893 -177.899 -117.756 181.997
lowerback 3.78163 1.49524 -2.08449
upperback -3.31001 2.00659 3.30906
thorax -5.76189 1.14161 4.45181
lowerneck -16.9405 -2.09779 -12.4493
upperneck -18.1804 -0.694539 10.5403
head -2.67551 -0.0799606 5.40419
rclavicle 2.59662e-014 7.95139e-016
rhumerus 75.8114 -7.84237 -47.3078
rradius 51.2587
rwrist -7.93108
rhand -41.426 0.494391
rfingers 7.12502
rthumb -14.3421 -28.9902
lclavicle 2.59662e-014 7.95139e-016
lhumerus 75.9213 5.85467 53.7631
lradius 47.5279
lwrist 21.43
lhand -18.9532 27.9926
lfingers 7.12502
lthumb 7.35032 57.8449
rfemur -6.31963 6.24556 10.0957
rtibia 35.8964
rfoot -3.30666 -13.6331
rtoes 15.5739
lfemur -10.1642 0.833823 -19.0021
ltibia 26.7593
lfoot 19.2851 1.06572
ltoes -21.1482
1603
root -0.099889 19.586 -1.73363 -177.923 -117.419 182.249
lowerback 3.61869 1.63582 -2.14392
upperback -3.50392 2.18855 3.19442
thorax -5.88809 1.23627 4.35047
lowerneck -17.4895 -2.31733 -12.4799
upperneck -17.7798 -0.922308 10.6562
head -2.44781 -0.18011 5.42867
rclavicle -2.70099e-014 -1.59028e-015
rhumerus 77.1588 -8.84471 -47.1111
rradius 49.8225
rwrist -6.55244
rhand -41.8807 0.914862
rfingers 7.12502
rthumb -14.7802 -28.5381
lclavicle -2.70099e-014 -1.59028e-015
lhumerus 77.5367 6.63059 53.9241
lradius 45.7906
lwrist 21.1242
lhand -18.2593 27.4457
lfingers 7.12502
lthumb 8.02008 57.2735
rfemur -6.66002 6.11039 10.013
rtibia 36.0714
rfoot -5.84246 -14.8563
rtoes 19.5936
lfemur -10.0406 0.241658 -18.9335
ltibia 25.6517
lfoot 22.2097 1.95868
ltoes -16.0882
1604
root -0.134149 19.7868 -1.65778 -177.573 -117.147 182.029
lowerback 3.57508 1.76764 -1.87673
upperback -3.63647 2.37647 3.06226
thorax -6.0019 1.31774 4.0427
lowerneck -17.9953 -2.48802 -12.1574
upperneck -17.5205 -1.1779 10.4017
head -2.27901 -0.311766 5.27421
rclavicle -1.41137e-014 -2.22639e-014
rhumerus 78.5128 -9.97066 -47.0199
rradius 48.4013
rwrist -4.64264
rhand -42.1636 1.12765
rfingers 7.12502
rthumb -15.0528 -28.3051
lclavicle -1.41137e-014 -2.22639e-014
lhumerus 79.0991 7.41107 53.7845
lradius 44.3922
lwrist 20.3783
lhand -17.9765 27.4579
lfingers 7.12502
lthumb 8.29306 57.2751
rfemur -7.03702 5.82489 10.1796
rtibia 36.2701
rfoot -7.19881 -15.7657
rtoes 21.5163
lfemur -10.0068 -0.342019 -18.6304
ltibia 24.9267
lfoot 24.3567 1.74199
ltoes -14.2081
